<svg width="390" height="1209" viewBox="0 0 390 1209" fill="none" xmlns="http://www.w3.org/2000/svg">
<g clip-path="url(#clip0_2013_37)">
<g clip-path="url(#clip1_2013_37)">
<path d="M501.35 1249.69C377.7 1215.26 269.839 1131.83 205.421 1020.81C205.162 1020.36 204.901 1019.91 204.64 1019.46C190.74 1019.42 176.861 1018.37 163.113 1016.33C84.199 1005.08 15.013 970.555 -31.693 919.101C-86.171 859.086 -107.527 777.375 -87.433 705.849C-65.151 626.528 10.129 568.629 87.67 571.175C110.517 571.926 131.723 577.385 152.231 582.664C164.605 585.849 176.292 588.857 187.944 590.764C268.98 604.001 358.481 555.547 391.701 480.453C424.921 405.359 400.555 306.544 336.243 255.491C314.089 237.904 287.491 226.22 259.457 220.479C260.879 226.981 261.864 233.572 262.405 240.206C265.38 276.693 252.429 314.845 226.879 344.875C201.329 374.905 165.738 393.79 129.238 396.693C90.978 399.737 41.852 383.414 24.405 340.383C5.069 292.695 35.629 241.826 74.494 212.568C104.28 190.144 139.262 175.845 175.694 169.623C157.014 149.809 134.933 134.769 118.533 125.11C100.378 114.418 81.559 105.101 61.633 95.236C26.279 77.736 -10.278 59.63 -42.356 33.423C-100.847 -14.37 -139.218 -87.862 -145 -163.173L-95.146 -167.001C-90.39 -105.056 -58.83 -44.607 -10.721 -5.30096C16.979 17.328 49.444 33.399 83.818 50.423C103.664 60.249 124.186 70.41 143.903 82.023C171.072 98.023 210.736 126.323 236.681 166.688C283.843 170.109 330 186.688 367.331 216.324C449.974 281.931 480.109 404.175 437.429 500.675C399.603 586.175 308.363 642.975 215.629 642.982C203.658 642.99 191.705 642.028 179.889 640.105C166.015 637.839 152.674 634.405 139.773 631.084C121.06 626.267 103.384 621.717 86.035 621.147C31.729 619.365 -23.324 662.511 -39.296 719.375C-54.539 773.633 -37.023 838.84 5.33 885.499C44.222 928.343 102.762 957.227 170.166 966.83C174.07 967.386 177.861 967.853 181.54 968.23C175.853 949.55 172.928 928.958 176.24 907.672C178.384 894.604 183.086 882.088 190.077 870.84C197.068 859.593 206.209 849.836 216.978 842.129C235.007 829.429 255.963 824.539 275.985 828.368C317.525 836.318 346.847 882.233 338.737 926.626C332.115 962.913 303.712 994.572 264.613 1009.24C262.518 1010.03 260.401 1010.77 258.264 1011.46C316.976 1103.42 409.508 1172.21 514.764 1201.52L501.35 1249.69ZM262.479 877.089C255.73 877.089 249.811 880.155 245.771 883.002C235.142 890.786 227.93 902.375 225.641 915.35C223.324 930.262 225.979 946.862 233.946 966.339C238.396 965.332 242.772 964.026 247.046 962.429C269.432 954.029 286.116 936.45 289.546 917.645C292.733 900.199 281.359 880.304 266.585 877.477C265.232 877.219 263.857 877.09 262.48 877.091L262.479 877.089ZM206.293 216.66C169.554 218.777 133.539 230.7 104.566 252.512C81.024 270.235 61.845 299.655 70.741 321.594C78.291 340.215 104.472 348.504 125.273 346.849C148.635 344.991 171.789 332.46 188.799 312.47C205.809 292.48 214.473 267.62 212.569 244.263C211.776 234.814 209.663 225.523 206.293 216.66Z" fill="url(#paint0_linear_2013_37)"/>
</g>
</g>
<defs>
<linearGradient id="paint0_linear_2013_37" x1="-14.3667" y1="541.344" x2="386.11" y2="541.344" gradientUnits="userSpaceOnUse">
<stop stop-color="#FF8989"/>
<stop offset="0.5" stop-color="#FDC880"/>
<stop offset="1" stop-color="#A54CFD"/>
</linearGradient>
<clipPath id="clip0_2013_37">
<rect width="390" height="1209" fill="white"/>
</clipPath>
<clipPath id="clip1_2013_37">
<rect width="659.763" height="1416.69" fill="white" transform="translate(-145 -167)"/>
</clipPath>
</defs>
</svg>
